<mxfile host="app.diagrams.net" agent="Mozilla/5.0 (Windows NT 10.0; Win64; x64) AppleWebKit/537.36 (KHTML, like Gecko) Chrome/131.0.0.0 Safari/537.36" version="25.0.3">
  <diagram name="Page-1" id="2SZyWGEg9_g9C3dbLXcB">
    <mxGraphModel dx="1050" dy="653" grid="1" gridSize="10" guides="1" tooltips="1" connect="1" arrows="1" fold="1" page="1" pageScale="1" pageWidth="850" pageHeight="1100" math="0" shadow="0">
      <root>
        <mxCell id="0" />
        <mxCell id="1" parent="0" />
        <mxCell id="kwSkqJuKIvFWFcBMyyUb-17" style="edgeStyle=orthogonalEdgeStyle;rounded=0;orthogonalLoop=1;jettySize=auto;html=1;entryX=0;entryY=0.5;entryDx=0;entryDy=0;" parent="1" source="kwSkqJuKIvFWFcBMyyUb-3" target="kwSkqJuKIvFWFcBMyyUb-8" edge="1">
          <mxGeometry relative="1" as="geometry" />
        </mxCell>
        <mxCell id="kwSkqJuKIvFWFcBMyyUb-3" value="&lt;font style=&quot;font-size: 14px;&quot;&gt;Table Schema&lt;/font&gt;" style="rounded=0;whiteSpace=wrap;html=1;" parent="1" vertex="1">
          <mxGeometry x="10" y="150" width="140" height="80" as="geometry" />
        </mxCell>
        <mxCell id="kwSkqJuKIvFWFcBMyyUb-18" style="edgeStyle=orthogonalEdgeStyle;rounded=0;orthogonalLoop=1;jettySize=auto;html=1;" parent="1" source="kwSkqJuKIvFWFcBMyyUb-5" target="kwSkqJuKIvFWFcBMyyUb-8" edge="1">
          <mxGeometry relative="1" as="geometry" />
        </mxCell>
        <mxCell id="kwSkqJuKIvFWFcBMyyUb-5" value="&lt;font style=&quot;font-size: 14px;&quot;&gt;Few Shot Examples&lt;/font&gt;" style="rounded=0;whiteSpace=wrap;html=1;" parent="1" vertex="1">
          <mxGeometry x="10" y="280" width="140" height="80" as="geometry" />
        </mxCell>
        <mxCell id="kwSkqJuKIvFWFcBMyyUb-8" value="&lt;font style=&quot;font-size: 14px;&quot;&gt;Embeddings&lt;/font&gt;" style="rounded=0;whiteSpace=wrap;html=1;" parent="1" vertex="1">
          <mxGeometry x="230" y="210" width="120" height="80" as="geometry" />
        </mxCell>
        <mxCell id="kwSkqJuKIvFWFcBMyyUb-10" value="&lt;font style=&quot;font-size: 14px;&quot;&gt;Vector DB&lt;/font&gt;" style="shape=cylinder3;whiteSpace=wrap;html=1;boundedLbl=1;backgroundOutline=1;size=15;" parent="1" vertex="1">
          <mxGeometry x="430" y="190" width="120" height="120" as="geometry" />
        </mxCell>
        <mxCell id="kwSkqJuKIvFWFcBMyyUb-11" value="&lt;font style=&quot;font-size: 14px;&quot;&gt;LLM&lt;/font&gt;" style="rounded=0;whiteSpace=wrap;html=1;" parent="1" vertex="1">
          <mxGeometry x="425" y="450" width="135" height="60" as="geometry" />
        </mxCell>
        <mxCell id="kwSkqJuKIvFWFcBMyyUb-39" style="edgeStyle=orthogonalEdgeStyle;rounded=0;orthogonalLoop=1;jettySize=auto;html=1;entryX=0.5;entryY=0;entryDx=0;entryDy=0;" parent="1" source="kwSkqJuKIvFWFcBMyyUb-12" target="kwSkqJuKIvFWFcBMyyUb-37" edge="1">
          <mxGeometry relative="1" as="geometry" />
        </mxCell>
        <mxCell id="kwSkqJuKIvFWFcBMyyUb-12" value="&lt;font style=&quot;font-size: 14px;&quot;&gt;MYSQL DB&lt;/font&gt;" style="shape=cylinder3;whiteSpace=wrap;html=1;boundedLbl=1;backgroundOutline=1;size=15;" parent="1" vertex="1">
          <mxGeometry x="420" y="590" width="140" height="120" as="geometry" />
        </mxCell>
        <mxCell id="kwSkqJuKIvFWFcBMyyUb-54" style="edgeStyle=orthogonalEdgeStyle;rounded=0;orthogonalLoop=1;jettySize=auto;html=1;" parent="1" source="kwSkqJuKIvFWFcBMyyUb-14" edge="1">
          <mxGeometry relative="1" as="geometry">
            <mxPoint x="490" y="1010" as="targetPoint" />
          </mxGeometry>
        </mxCell>
        <mxCell id="kwSkqJuKIvFWFcBMyyUb-14" value="&lt;font style=&quot;font-size: 14px;&quot;&gt;LLM&lt;/font&gt;" style="rounded=0;whiteSpace=wrap;html=1;" parent="1" vertex="1">
          <mxGeometry x="415" y="910" width="150" height="60" as="geometry" />
        </mxCell>
        <mxCell id="kwSkqJuKIvFWFcBMyyUb-63" style="edgeStyle=orthogonalEdgeStyle;rounded=0;orthogonalLoop=1;jettySize=auto;html=1;" parent="1" source="kwSkqJuKIvFWFcBMyyUb-15" edge="1">
          <mxGeometry relative="1" as="geometry">
            <mxPoint x="720" y="950" as="targetPoint" />
          </mxGeometry>
        </mxCell>
        <mxCell id="kwSkqJuKIvFWFcBMyyUb-15" value="LLM" style="rounded=1;whiteSpace=wrap;html=1;" parent="1" vertex="1">
          <mxGeometry x="430" y="50" width="120" height="60" as="geometry" />
        </mxCell>
        <mxCell id="kwSkqJuKIvFWFcBMyyUb-16" style="edgeStyle=orthogonalEdgeStyle;rounded=0;orthogonalLoop=1;jettySize=auto;html=1;entryX=0.5;entryY=0;entryDx=0;entryDy=0;entryPerimeter=0;" parent="1" source="kwSkqJuKIvFWFcBMyyUb-15" target="kwSkqJuKIvFWFcBMyyUb-10" edge="1">
          <mxGeometry relative="1" as="geometry" />
        </mxCell>
        <mxCell id="kwSkqJuKIvFWFcBMyyUb-19" style="edgeStyle=orthogonalEdgeStyle;rounded=0;orthogonalLoop=1;jettySize=auto;html=1;entryX=0;entryY=0.5;entryDx=0;entryDy=0;entryPerimeter=0;" parent="1" source="kwSkqJuKIvFWFcBMyyUb-8" target="kwSkqJuKIvFWFcBMyyUb-10" edge="1">
          <mxGeometry relative="1" as="geometry" />
        </mxCell>
        <mxCell id="kwSkqJuKIvFWFcBMyyUb-20" style="edgeStyle=orthogonalEdgeStyle;rounded=0;orthogonalLoop=1;jettySize=auto;html=1;" parent="1" source="kwSkqJuKIvFWFcBMyyUb-10" edge="1">
          <mxGeometry relative="1" as="geometry">
            <mxPoint x="445" y="450" as="targetPoint" />
          </mxGeometry>
        </mxCell>
        <mxCell id="kwSkqJuKIvFWFcBMyyUb-21" style="edgeStyle=orthogonalEdgeStyle;rounded=0;orthogonalLoop=1;jettySize=auto;html=1;" parent="1" source="kwSkqJuKIvFWFcBMyyUb-10" edge="1">
          <mxGeometry relative="1" as="geometry">
            <mxPoint x="536" y="450" as="targetPoint" />
          </mxGeometry>
        </mxCell>
        <mxCell id="kwSkqJuKIvFWFcBMyyUb-24" style="edgeStyle=orthogonalEdgeStyle;rounded=0;orthogonalLoop=1;jettySize=auto;html=1;entryX=0.518;entryY=0.083;entryDx=0;entryDy=0;entryPerimeter=0;" parent="1" source="kwSkqJuKIvFWFcBMyyUb-11" target="kwSkqJuKIvFWFcBMyyUb-12" edge="1">
          <mxGeometry relative="1" as="geometry" />
        </mxCell>
        <mxCell id="kwSkqJuKIvFWFcBMyyUb-29" value="&lt;font style=&quot;font-size: 14px;&quot;&gt;OpenAIEmbeddings&lt;/font&gt;" style="text;html=1;align=center;verticalAlign=middle;whiteSpace=wrap;rounded=0;" parent="1" vertex="1">
          <mxGeometry x="260" y="180" width="60" height="30" as="geometry" />
        </mxCell>
        <mxCell id="kwSkqJuKIvFWFcBMyyUb-30" value="&lt;font style=&quot;font-size: 14px;&quot;&gt;db.table_info&lt;/font&gt;" style="text;html=1;align=center;verticalAlign=middle;whiteSpace=wrap;rounded=0;" parent="1" vertex="1">
          <mxGeometry x="50" y="120" width="60" height="30" as="geometry" />
        </mxCell>
        <mxCell id="kwSkqJuKIvFWFcBMyyUb-31" value="&lt;font style=&quot;font-size: 14px;&quot;&gt;Streamlit UI&lt;/font&gt;" style="text;html=1;align=center;verticalAlign=middle;whiteSpace=wrap;rounded=0;" parent="1" vertex="1">
          <mxGeometry x="255" y="10" width="90" height="30" as="geometry" />
        </mxCell>
        <mxCell id="kwSkqJuKIvFWFcBMyyUb-32" value="&lt;b&gt;&lt;font style=&quot;font-size: 14px;&quot;&gt;Fetch Relevant Table Sachems only&lt;/font&gt;&lt;/b&gt;" style="text;html=1;align=center;verticalAlign=middle;whiteSpace=wrap;rounded=0;" parent="1" vertex="1">
          <mxGeometry x="290" y="410" width="165" height="30" as="geometry" />
        </mxCell>
        <mxCell id="kwSkqJuKIvFWFcBMyyUb-33" value="&lt;font style=&quot;font-size: 14px;&quot;&gt;&lt;b style=&quot;&quot;&gt;Fetch Relevant Few Shot Examples only&lt;/b&gt;&lt;/font&gt;" style="text;html=1;align=center;verticalAlign=middle;whiteSpace=wrap;rounded=0;" parent="1" vertex="1">
          <mxGeometry x="530" y="390" width="130" height="50" as="geometry" />
        </mxCell>
        <mxCell id="kwSkqJuKIvFWFcBMyyUb-34" value="&lt;font style=&quot;font-size: 14px;&quot;&gt;gpt-4o&lt;/font&gt;" style="text;html=1;align=center;verticalAlign=middle;whiteSpace=wrap;rounded=0;" parent="1" vertex="1">
          <mxGeometry x="370" y="465" width="60" height="30" as="geometry" />
        </mxCell>
        <mxCell id="kwSkqJuKIvFWFcBMyyUb-35" value="&lt;font style=&quot;font-size: 14px;&quot;&gt;LLM Generated SQL Query&lt;/font&gt;" style="text;html=1;align=center;verticalAlign=middle;whiteSpace=wrap;rounded=0;" parent="1" vertex="1">
          <mxGeometry x="400" y="530" width="95" height="40" as="geometry" />
        </mxCell>
        <mxCell id="kwSkqJuKIvFWFcBMyyUb-36" value="&lt;font style=&quot;font-size: 14px;&quot;&gt;Convert SQL Results into natural language answer&amp;nbsp;&lt;/font&gt;" style="text;html=1;align=center;verticalAlign=middle;whiteSpace=wrap;rounded=0;" parent="1" vertex="1">
          <mxGeometry x="495" y="970" width="155" height="50" as="geometry" />
        </mxCell>
        <mxCell id="kwSkqJuKIvFWFcBMyyUb-40" style="edgeStyle=orthogonalEdgeStyle;rounded=0;orthogonalLoop=1;jettySize=auto;html=1;" parent="1" source="kwSkqJuKIvFWFcBMyyUb-37" target="kwSkqJuKIvFWFcBMyyUb-14" edge="1">
          <mxGeometry relative="1" as="geometry" />
        </mxCell>
        <mxCell id="kwSkqJuKIvFWFcBMyyUb-47" style="edgeStyle=orthogonalEdgeStyle;rounded=0;orthogonalLoop=1;jettySize=auto;html=1;" parent="1" source="kwSkqJuKIvFWFcBMyyUb-37" edge="1">
          <mxGeometry relative="1" as="geometry">
            <mxPoint x="300" y="810" as="targetPoint" />
          </mxGeometry>
        </mxCell>
        <mxCell id="kwSkqJuKIvFWFcBMyyUb-37" value="Query Execution Passed" style="rhombus;whiteSpace=wrap;html=1;" parent="1" vertex="1">
          <mxGeometry x="450" y="770" width="80" height="80" as="geometry" />
        </mxCell>
        <mxCell id="kwSkqJuKIvFWFcBMyyUb-42" value="&lt;font style=&quot;font-size: 14px;&quot;&gt;gpt-4o&lt;/font&gt;" style="text;html=1;align=center;verticalAlign=middle;whiteSpace=wrap;rounded=0;" parent="1" vertex="1">
          <mxGeometry x="120" y="795" width="60" height="30" as="geometry" />
        </mxCell>
        <mxCell id="kwSkqJuKIvFWFcBMyyUb-48" value="&lt;font style=&quot;font-size: 14px;&quot;&gt;LLM&lt;/font&gt;" style="rounded=1;whiteSpace=wrap;html=1;" parent="1" vertex="1">
          <mxGeometry x="180" y="780" width="120" height="60" as="geometry" />
        </mxCell>
        <mxCell id="kwSkqJuKIvFWFcBMyyUb-51" value="" style="endArrow=classic;html=1;rounded=0;exitX=0.5;exitY=0;exitDx=0;exitDy=0;" parent="1" source="kwSkqJuKIvFWFcBMyyUb-48" edge="1">
          <mxGeometry width="50" height="50" relative="1" as="geometry">
            <mxPoint x="370" y="700" as="sourcePoint" />
            <mxPoint x="420" y="650" as="targetPoint" />
            <Array as="points">
              <mxPoint x="240" y="650" />
            </Array>
          </mxGeometry>
        </mxCell>
        <mxCell id="kwSkqJuKIvFWFcBMyyUb-52" value="&lt;font style=&quot;font-size: 14px;&quot;&gt;YES&lt;/font&gt;" style="text;html=1;align=center;verticalAlign=middle;whiteSpace=wrap;rounded=0;" parent="1" vertex="1">
          <mxGeometry x="430" y="860" width="60" height="30" as="geometry" />
        </mxCell>
        <mxCell id="kwSkqJuKIvFWFcBMyyUb-53" value="&lt;font style=&quot;font-size: 14px;&quot;&gt;NO&lt;/font&gt;" style="text;html=1;align=center;verticalAlign=middle;whiteSpace=wrap;rounded=0;" parent="1" vertex="1">
          <mxGeometry x="350" y="780" width="60" height="30" as="geometry" />
        </mxCell>
        <mxCell id="kwSkqJuKIvFWFcBMyyUb-55" value="&lt;font style=&quot;font-size: 16px;&quot;&gt;Final Answer&lt;/font&gt;" style="text;html=1;align=center;verticalAlign=middle;whiteSpace=wrap;rounded=0;" parent="1" vertex="1">
          <mxGeometry x="430" y="1020" width="130" height="30" as="geometry" />
        </mxCell>
        <mxCell id="kwSkqJuKIvFWFcBMyyUb-57" value="&lt;font style=&quot;font-size: 14px;&quot;&gt;Regenerated&amp;nbsp; New SQL Query&lt;/font&gt;" style="text;html=1;align=center;verticalAlign=middle;whiteSpace=wrap;rounded=0;" parent="1" vertex="1">
          <mxGeometry x="190" y="600" width="140" height="60" as="geometry" />
        </mxCell>
        <mxCell id="kwSkqJuKIvFWFcBMyyUb-59" value="&lt;font style=&quot;font-size: 14px;&quot;&gt;gpt-4o&lt;/font&gt;" style="text;html=1;align=center;verticalAlign=middle;whiteSpace=wrap;rounded=0;" parent="1" vertex="1">
          <mxGeometry x="350" y="920" width="60" height="30" as="geometry" />
        </mxCell>
        <mxCell id="kwSkqJuKIvFWFcBMyyUb-64" value="" style="endArrow=classic;html=1;rounded=0;entryX=1;entryY=0.5;entryDx=0;entryDy=0;" parent="1" target="kwSkqJuKIvFWFcBMyyUb-11" edge="1">
          <mxGeometry width="50" height="50" relative="1" as="geometry">
            <mxPoint x="720" y="480" as="sourcePoint" />
            <mxPoint x="650" y="530" as="targetPoint" />
            <Array as="points" />
          </mxGeometry>
        </mxCell>
        <mxCell id="kwSkqJuKIvFWFcBMyyUb-65" value="&lt;font style=&quot;font-size: 14px;&quot;&gt;Refined user Question&lt;/font&gt;" style="text;html=1;align=center;verticalAlign=middle;whiteSpace=wrap;rounded=0;" parent="1" vertex="1">
          <mxGeometry x="720" y="250" width="60" height="100" as="geometry" />
        </mxCell>
        <mxCell id="kwSkqJuKIvFWFcBMyyUb-66" value="&lt;font style=&quot;font-size: 14px;&quot;&gt;Pinecone DB&lt;/font&gt;" style="text;html=1;align=center;verticalAlign=middle;whiteSpace=wrap;rounded=0;" parent="1" vertex="1">
          <mxGeometry x="560" y="220" width="90" height="30" as="geometry" />
        </mxCell>
        <mxCell id="OIb8bDyXXN1jV4LOLGpr-2" style="edgeStyle=orthogonalEdgeStyle;rounded=0;orthogonalLoop=1;jettySize=auto;html=1;entryX=0;entryY=0.5;entryDx=0;entryDy=0;" parent="1" source="OIb8bDyXXN1jV4LOLGpr-1" target="kwSkqJuKIvFWFcBMyyUb-15" edge="1">
          <mxGeometry relative="1" as="geometry" />
        </mxCell>
        <mxCell id="OIb8bDyXXN1jV4LOLGpr-1" value="&lt;span style=&quot;font-size: 14px;&quot;&gt;User Question&lt;/span&gt;" style="rounded=1;whiteSpace=wrap;html=1;" parent="1" vertex="1">
          <mxGeometry x="240" y="50" width="120" height="60" as="geometry" />
        </mxCell>
        <mxCell id="OIb8bDyXXN1jV4LOLGpr-4" value="&lt;font style=&quot;font-size: 14px;&quot;&gt;Question Re-writing technique&amp;nbsp;&lt;/font&gt;" style="text;html=1;align=center;verticalAlign=middle;whiteSpace=wrap;rounded=0;" parent="1" vertex="1">
          <mxGeometry x="420" y="10" width="140" height="30" as="geometry" />
        </mxCell>
        <mxCell id="OIb8bDyXXN1jV4LOLGpr-6" value="&lt;font style=&quot;font-size: 14px;&quot;&gt;Refined user Question&lt;/font&gt;" style="text;html=1;align=center;verticalAlign=middle;whiteSpace=wrap;rounded=0;" parent="1" vertex="1">
          <mxGeometry x="430" y="100" width="60" height="100" as="geometry" />
        </mxCell>
        <mxCell id="e2ldhd5WxcKMShK4zOQ7-1" value="" style="endArrow=classic;html=1;rounded=0;entryX=1.007;entryY=0.397;entryDx=0;entryDy=0;entryPerimeter=0;" edge="1" parent="1">
          <mxGeometry width="50" height="50" relative="1" as="geometry">
            <mxPoint x="720" y="944" as="sourcePoint" />
            <mxPoint x="565" y="943.8199999999999" as="targetPoint" />
          </mxGeometry>
        </mxCell>
      </root>
    </mxGraphModel>
  </diagram>
</mxfile>
